<svg width="39" height="24" viewBox="0 0 39 24" fill="none" xmlns="http://www.w3.org/2000/svg">
<g clip-path="url(#clip0_95_16695)">
<path d="M37.875 0.742188H1.125C0.50368 0.742188 0 1.22967 0 1.831V22.8814C0 23.4828 0.50368 23.9703 1.125 23.9703H37.875C38.4963 23.9703 39 23.4828 39 22.8814V1.831C39 1.22967 38.4963 0.742188 37.875 0.742188Z" fill="white"/>
<path d="M14.415 9.72824C14.0094 9.72669 13.6089 9.81613 13.245 9.98956C12.6469 10.2539 12.13 10.6641 11.745 11.18C11.5063 11.5481 11.3149 11.943 11.175 12.3559C11.008 12.6677 10.9208 13.0137 10.9208 13.3649C10.9208 13.7161 11.008 14.0621 11.175 14.3739C11.3322 14.5748 11.5407 14.7326 11.78 14.8319C12.0194 14.9312 12.2813 14.9684 12.54 14.94C14.04 14.94 15.06 14.0254 15.75 12.2107C15.9019 11.9024 15.9807 11.5651 15.9807 11.2235C15.9807 10.882 15.9019 10.5447 15.75 10.2364C15.5925 10.0403 15.3857 9.88669 15.1493 9.79011C14.913 9.69352 14.655 9.65723 14.4 9.68469L14.415 9.72824ZM23.16 9.72824C22.7497 9.72806 22.3447 9.81738 21.975 9.98956C21.409 10.2652 20.924 10.6747 20.565 11.18C20.2911 11.5547 20.0739 11.9653 19.92 12.3995C19.7542 12.7116 19.6677 13.0575 19.6677 13.4084C19.6677 13.7594 19.7542 14.1053 19.92 14.4174C20.0785 14.6206 20.2895 14.7799 20.5317 14.8793C20.7739 14.9787 21.0389 15.0146 21.3 14.9836C22.8 14.9836 23.835 14.069 24.525 12.2543C24.6801 11.9468 24.7607 11.6092 24.7607 11.2671C24.7607 10.925 24.6801 10.5874 24.525 10.2799C24.3661 10.0816 24.1569 9.92658 23.9176 9.8299C23.6784 9.73322 23.4174 9.69819 23.16 9.72824ZM9.765 9.72824C9.30484 9.69459 8.84286 9.76415 8.415 9.93148C8.1442 10.09 7.90994 10.3006 7.72674 10.5503C7.54354 10.8001 7.41531 11.0836 7.35 11.3832C7.29398 11.5323 7.26358 11.6892 7.26 11.8478C7.22867 11.957 7.22867 12.0725 7.26 12.1817C7.33483 12.308 7.43721 12.417 7.56 12.5011C7.69639 12.601 7.84827 12.6794 8.01 12.7334H8.205L8.52 12.8205H8.655L8.775 12.9366C8.78228 12.9701 8.78228 13.0047 8.775 13.0382C8.78228 13.0815 8.78228 13.1256 8.775 13.1689C8.75709 13.2171 8.72924 13.2612 8.69313 13.2987C8.65703 13.3361 8.61344 13.366 8.565 13.3867C8.39136 13.4165 8.21364 13.4165 8.04 13.3867H4.995L4.5 14.8965H7.83C8.34007 14.9227 8.85034 14.8487 9.33 14.6787C9.63917 14.5217 9.90604 14.2968 10.1092 14.022C10.3124 13.7472 10.4462 13.4302 10.5 13.0963C10.5586 12.9632 10.5888 12.82 10.5888 12.6753C10.5888 12.5306 10.5586 12.3874 10.5 12.2543C10.3214 12.0088 10.0535 11.8376 9.75 11.7752H9.57L9.3 11.6591C9.21501 11.6351 9.14095 11.584 9.09 11.5139C9.0715 11.4778 9.06187 11.4381 9.06187 11.3978C9.06187 11.3575 9.0715 11.3177 9.09 11.2816C9.11737 11.1966 9.17609 11.1242 9.255 11.0784C9.36856 11.0534 9.48644 11.0534 9.6 11.0784H11.505C11.8444 10.6208 12.2723 10.2313 12.765 9.93148L9.765 9.72824ZM18.465 9.72824C18.0704 9.71217 17.6811 9.82113 17.3562 10.0386C17.0314 10.2561 16.7887 10.5701 16.665 10.9332L15.165 14.8239H16.8L17.55 12.835H19.05L19.455 11.7607H18L18.225 11.1364C18.2477 11.0741 18.2906 11.0206 18.3474 10.9839C18.4042 10.9473 18.4718 10.9295 18.54 10.9332H20.22C20.5814 10.4685 21.0353 10.0785 21.555 9.78631L18.465 9.72824ZM25.965 9.72824L24 14.911H25.635L26.325 13.1108C26.325 13.1834 26.775 14.911 26.775 14.911H28.5C28.3547 14.3065 28.1744 13.7103 27.96 13.1253C27.96 12.9947 27.84 12.8495 27.765 12.7189C28.0975 12.6229 28.4042 12.4574 28.6634 12.2342C28.9226 12.0109 29.1279 11.7353 29.265 11.4268C29.3596 11.2547 29.409 11.0628 29.409 10.8679C29.409 10.673 29.3596 10.481 29.265 10.3089C29.025 9.96052 28.53 9.80083 27.765 9.80083L25.965 9.72824ZM29.31 9.72824C29.4113 9.80914 29.502 9.90178 29.58 10.0041C29.7664 10.2834 29.8411 10.6189 29.79 10.9477H30.765L29.265 14.8384H30.765L32.265 10.9477H34.05L34.5 9.72824H29.31ZM27 10.9042H27.27C27.75 10.9042 27.945 11.0348 27.78 11.4703C27.7193 11.6719 27.5899 11.8476 27.4129 11.9689C27.2358 12.0901 27.0216 12.1498 26.805 12.1382H26.52L27 10.9042ZM14.04 10.9042C14.535 10.9042 14.655 11.1945 14.205 12.3559C13.755 13.5464 13.425 13.8077 12.945 13.8077C12.45 13.8077 12.285 13.5173 12.735 12.3559C13.08 11.4703 13.515 10.9042 14.04 10.9042ZM22.77 10.9042C23.28 10.9042 23.385 11.1945 22.95 12.3559C22.515 13.5173 22.17 13.8077 21.675 13.8077C21.195 13.8077 21.03 13.5173 21.48 12.3559C21.81 11.4703 22.245 10.9042 22.77 10.9042Z" fill="#303C42"/>
</g>
<defs>
<clipPath id="clip0_95_16695">
<rect width="39" height="23.2281" fill="white" transform="translate(0 0.742188)"/>
</clipPath>
</defs>
</svg>
