<svg width="200" height="200" viewBox="0 0 200 200" fill="none" xmlns="http://www.w3.org/2000/svg">
<g clip-path="url(#clip0_2_3144)">
<path d="M14.4117 186.088H15.2647C16.0886 186.055 16.9103 186.195 17.6764 186.5C18.3379 186.807 18.8692 187.338 19.1764 188C19.5513 188.82 19.7324 189.716 19.7058 190.617C19.737 191.529 19.5557 192.435 19.1764 193.265C18.8602 193.888 18.3417 194.386 17.7058 194.676C16.9264 194.968 16.0959 195.098 15.2647 195.059H14.4117V186.088ZM8.82349 183.794V186.088H10.8823V194.912H8.82349V197.206H15.7058C16.5479 197.266 17.3932 197.266 18.2353 197.206C18.8709 197.094 19.4858 196.885 20.0588 196.588C20.7032 196.293 21.2829 195.873 21.7647 195.353C22.2792 194.744 22.6779 194.046 22.9411 193.294C23.2955 192.444 23.4948 191.538 23.5294 190.617C23.5415 189.522 23.3104 188.437 22.8529 187.441C22.3948 186.575 21.7275 185.837 20.9117 185.294C20.2155 184.741 19.3997 184.358 18.5294 184.176C17.4499 184.005 16.3576 183.926 15.2647 183.941L8.82349 183.794Z" fill="url(#paint0_linear_2_3144)"/>
<mask id="mask0_2_3144" style="mask-type:luminance" maskUnits="userSpaceOnUse" x="8" y="183" width="16" height="15">
<path d="M14.4117 186.088H15.2647C16.0886 186.055 16.9103 186.195 17.6764 186.5C18.3379 186.807 18.8692 187.338 19.1764 188C19.5513 188.82 19.7324 189.716 19.7058 190.617C19.737 191.529 19.5557 192.435 19.1764 193.265C18.8602 193.888 18.3417 194.386 17.7058 194.676C16.9264 194.968 16.0959 195.098 15.2647 195.059H14.4117V186.088ZM8.82349 183.794V186.088H10.8823V194.912H8.82349V197.206H15.7058C16.5479 197.266 17.3932 197.266 18.2353 197.206C18.8709 197.094 19.4858 196.885 20.0588 196.588C20.7032 196.293 21.2829 195.873 21.7647 195.353C22.2792 194.744 22.6779 194.046 22.9411 193.294C23.2955 192.444 23.4948 191.538 23.5294 190.617C23.5415 189.522 23.3104 188.437 22.8529 187.441C22.3948 186.575 21.7275 185.837 20.9117 185.294C20.2155 184.741 19.3997 184.358 18.5294 184.176C17.4499 184.005 16.3576 183.926 15.2647 183.941L8.82349 183.794Z" fill="white"/>
</mask>
<g mask="url(#mask0_2_3144)">
<path d="M17.4413 176.63L2.146 189.333L14.7737 204.538L30.069 191.835L17.4413 176.63Z" fill="url(#paint1_linear_2_3144)"/>
</g>
<path d="M32.3529 183.794V186.088H33.6764V191.97C33.7427 192.645 33.7427 193.325 33.6764 194C33.5754 194.331 33.3688 194.62 33.0882 194.823C32.7454 195.04 32.3468 195.153 31.9411 195.147C31.5386 195.165 31.1426 195.04 30.8235 194.794C30.5431 194.571 30.3461 194.26 30.2646 193.912C30.2229 193.324 30.2229 192.734 30.2646 192.147V186.088H31.5882V183.794H24.7646V186.088H26.4705V192.235C26.3899 193.017 26.3899 193.806 26.4705 194.588C26.574 195.094 26.7957 195.567 27.1176 195.97C27.5345 196.488 28.0831 196.885 28.7058 197.117C29.5273 197.406 30.394 197.546 31.2646 197.529C32.0465 197.546 32.8246 197.416 33.5588 197.147C34.1435 196.945 34.669 196.602 35.0882 196.147C35.4146 195.788 35.647 195.353 35.7646 194.882C35.8779 194.222 35.9272 193.552 35.9117 192.882V186.088H37.5588V183.794H32.3529Z" fill="url(#paint2_linear_2_3144)"/>
<mask id="mask1_2_3144" style="mask-type:luminance" maskUnits="userSpaceOnUse" x="24" y="183" width="14" height="15">
<path d="M32.3529 183.794V186.088H33.6764V191.97C33.7427 192.645 33.7427 193.325 33.6764 194C33.5754 194.331 33.3688 194.62 33.0882 194.823C32.7454 195.04 32.3468 195.153 31.9411 195.147C31.5386 195.165 31.1426 195.04 30.8235 194.794C30.5431 194.571 30.3461 194.26 30.2646 193.912C30.2229 193.324 30.2229 192.734 30.2646 192.147V186.088H31.5882V183.794H24.7646V186.088H26.4705V192.235C26.3899 193.017 26.3899 193.806 26.4705 194.588C26.574 195.094 26.7957 195.567 27.1176 195.97C27.5345 196.488 28.0831 196.885 28.7058 197.117C29.5273 197.406 30.394 197.546 31.2646 197.529C32.0465 197.546 32.8246 197.416 33.5588 197.147C34.1435 196.945 34.669 196.602 35.0882 196.147C35.4146 195.788 35.647 195.353 35.7646 194.882C35.8779 194.222 35.9272 193.552 35.9117 192.882V186.088H37.5588V183.794H32.3529Z" fill="white"/>
</mask>
<g mask="url(#mask1_2_3144)">
<path d="M32.3715 177.462L18.0039 189.395L30.0115 203.853L44.3791 191.92L32.3715 177.462Z" fill="url(#paint3_linear_2_3144)"/>
</g>
<path d="M43.794 191.441H44.794C45.4386 191.396 46.0825 191.539 46.647 191.853C46.8489 192.031 47.0051 192.255 47.1024 192.505C47.1996 192.756 47.2351 193.027 47.2058 193.294C47.2364 193.55 47.2042 193.81 47.112 194.051C47.0197 194.292 46.8702 194.506 46.6764 194.677C46.1015 194.99 45.4456 195.123 44.794 195.059H43.794V191.441ZM43.794 186.088H44.6764C45.2446 186.045 45.8138 186.157 46.3234 186.412C46.4896 186.55 46.6193 186.727 46.7013 186.927C46.7834 187.127 46.8152 187.344 46.794 187.559C46.8223 187.788 46.7943 188.02 46.7122 188.235C46.6302 188.45 46.4967 188.642 46.3234 188.794C45.8604 189.062 45.3276 189.185 44.794 189.147H43.794V186.088ZM38.5881 183.794V186.088H40.2646V194.912H38.5881V197.206H44.794C45.9132 197.307 47.0409 197.257 48.147 197.059C48.9195 196.838 49.6003 196.374 50.0881 195.735C50.5965 195.08 50.8663 194.271 50.8528 193.441C50.8662 192.703 50.6336 191.982 50.1916 191.391C49.7495 190.8 49.1233 190.372 48.4117 190.177C49.004 189.957 49.5097 189.552 49.854 189.022C50.1983 188.492 50.3629 187.866 50.3234 187.235C50.3423 186.446 50.0819 185.675 49.5881 185.059C49.1687 184.478 48.5517 184.07 47.8528 183.912C46.8824 183.738 45.8974 183.66 44.9117 183.677L38.5881 183.794Z" fill="url(#paint4_linear_2_3144)"/>
<mask id="mask2_2_3144" style="mask-type:luminance" maskUnits="userSpaceOnUse" x="38" y="183" width="13" height="15">
<path d="M43.794 191.441H44.794C45.4386 191.396 46.0825 191.539 46.647 191.853C46.8489 192.031 47.0051 192.255 47.1024 192.505C47.1996 192.756 47.2351 193.027 47.2058 193.294C47.2364 193.55 47.2042 193.81 47.112 194.051C47.0197 194.292 46.8702 194.506 46.6764 194.677C46.1015 194.99 45.4456 195.123 44.794 195.059H43.794V191.441ZM43.794 186.088H44.6764C45.2446 186.045 45.8138 186.157 46.3234 186.412C46.4896 186.55 46.6193 186.727 46.7013 186.927C46.7834 187.127 46.8152 187.344 46.794 187.559C46.8223 187.788 46.7943 188.02 46.7122 188.235C46.6302 188.45 46.4967 188.642 46.3234 188.794C45.8604 189.062 45.3276 189.185 44.794 189.147H43.794V186.088ZM38.5881 183.794V186.088H40.2646V194.912H38.5881V197.206H44.794C45.9132 197.307 47.0409 197.257 48.147 197.059C48.9195 196.838 49.6003 196.374 50.0881 195.735C50.5965 195.08 50.8663 194.271 50.8528 193.441C50.8662 192.703 50.6336 191.982 50.1916 191.391C49.7495 190.8 49.1233 190.372 48.4117 190.177C49.004 189.957 49.5097 189.552 49.854 189.022C50.1983 188.492 50.3629 187.866 50.3234 187.235C50.3423 186.446 50.0819 185.675 49.5881 185.059C49.1687 184.478 48.5517 184.07 47.8528 183.912C46.8824 183.738 45.8974 183.66 44.9117 183.677L38.5881 183.794Z" fill="white"/>
</mask>
<g mask="url(#mask2_2_3144)">
<path d="M45.8649 177.77L31.9272 189.346L43.5966 203.397L57.5343 191.821L45.8649 177.77Z" fill="url(#paint5_linear_2_3144)"/>
</g>
<path d="M58.5882 186.647L59.7352 190.735H57.3823L58.5882 186.647ZM54.3529 183.706V186H56.147L53.5294 194.824H51.8235V197.118H57.8529V194.824H56.0294L56.7647 192.5H60.2941L60.9117 194.824H59.1764V197.118H65.8529V194.824H64.2352L61.2941 186H63.1176V183.706H54.3529Z" fill="url(#paint6_linear_2_3144)"/>
<mask id="mask3_2_3144" style="mask-type:luminance" maskUnits="userSpaceOnUse" x="51" y="183" width="15" height="15">
<path d="M58.5882 186.647L59.7352 190.735H57.3823L58.5882 186.647ZM54.3529 183.706V186H56.147L53.5294 194.824H51.8235V197.118H57.8529V194.824H56.0294L56.7647 192.5H60.2941L60.9117 194.824H59.1764V197.118H65.8529V194.824H64.2352L61.2941 186H63.1176V183.706H54.3529Z" fill="white"/>
</mask>
<g mask="url(#mask3_2_3144)">
<path d="M60.1538 176.918L45.1753 189.358L57.5775 204.291L72.556 191.851L60.1538 176.918Z" fill="url(#paint7_linear_2_3144)"/>
</g>
<path d="M66.2942 183.794V186.088H68.353V195.088H66.2942V197.382H73.9412V195.088H71.8824V186.088H73.9412V183.794H66.2942Z" fill="url(#paint8_linear_2_3144)"/>
<mask id="mask4_2_3144" style="mask-type:luminance" maskUnits="userSpaceOnUse" x="66" y="183" width="8" height="15">
<path d="M66.2942 183.794V186.088H68.353V195.088H66.2942V197.382H73.9412V195.088H71.8824V186.088H73.9412V183.794H66.2942Z" fill="white"/>
</mask>
<g mask="url(#mask4_2_3144)">
<path d="M70.8266 180.018L59.604 189.338L69.413 201.149L80.6356 191.829L70.8266 180.018Z" fill="url(#paint9_linear_2_3144)"/>
</g>
<path d="M85.294 186.088H85.9411C86.449 186.026 86.9625 186.026 87.4705 186.088C87.8211 186.199 88.1226 186.427 88.3234 186.735C88.5667 187.111 88.6898 187.552 88.6764 188C88.6909 188.539 88.5019 189.064 88.1469 189.471C87.4763 189.957 86.6447 190.167 85.8234 190.059H85.294V186.088ZM80.0293 183.794V186.088H81.7646V194.912H80.0293V197.206H87.1764V194.912H85.294V192.294H86.5881C87.3957 192.306 88.2027 192.247 88.9999 192.118C89.6066 192.003 90.1857 191.774 90.7058 191.441C91.2326 191.093 91.6506 190.604 91.9117 190.029C92.2453 189.395 92.4171 188.688 92.4117 187.971C92.4361 187.375 92.3242 186.782 92.0847 186.237C91.8451 185.692 91.4841 185.208 91.0293 184.823C89.9333 183.971 88.5616 183.552 87.1764 183.647L80.0293 183.794Z" fill="url(#paint10_linear_2_3144)"/>
<mask id="mask5_2_3144" style="mask-type:luminance" maskUnits="userSpaceOnUse" x="80" y="183" width="13" height="15">
<path d="M85.294 186.088H85.9411C86.449 186.026 86.9625 186.026 87.4705 186.088C87.8211 186.199 88.1226 186.427 88.3234 186.735C88.5667 187.111 88.6898 187.552 88.6764 188C88.6909 188.539 88.5019 189.064 88.1469 189.471C87.4763 189.957 86.6447 190.167 85.8234 190.059H85.294V186.088ZM80.0293 183.794V186.088H81.7646V194.912H80.0293V197.206H87.1764V194.912H85.294V192.294H86.5881C87.3957 192.306 88.2027 192.247 88.9999 192.118C89.6066 192.003 90.1857 191.774 90.7058 191.441C91.2326 191.093 91.6506 190.604 91.9117 190.029C92.2453 189.395 92.4171 188.688 92.4117 187.971C92.4361 187.375 92.3242 186.782 92.0847 186.237C91.8451 185.692 91.4841 185.208 91.0293 184.823C89.9333 183.971 88.5616 183.552 87.1764 183.647L80.0293 183.794Z" fill="white"/>
</mask>
<g mask="url(#mask5_2_3144)">
<path d="M87.3078 177.723L73.3022 189.354L85.028 203.473L99.0335 191.841L87.3078 177.723Z" fill="url(#paint11_linear_2_3144)"/>
</g>
<path d="M93.3823 183.794V186.088H95V195.088H93.3823V197.382H105.324V193.059H102.735V195.088H98.5294V191.5H101.941V189.206H98.5294V186.088H102.735V188.088H105.324V183.794H93.3823Z" fill="url(#paint12_linear_2_3144)"/>
<mask id="mask6_2_3144" style="mask-type:luminance" maskUnits="userSpaceOnUse" x="93" y="183" width="13" height="15">
<path d="M93.3823 183.794V186.088H95V195.088H93.3823V197.382H105.324V193.059H102.735V195.088H98.5294V191.5H101.941V189.206H98.5294V186.088H102.735V188.088H105.324V183.794H93.3823Z" fill="white"/>
</mask>
<g mask="url(#mask6_2_3144)">
<path d="M100.436 177.9L86.6792 189.325L98.2358 203.24L111.992 191.815L100.436 177.9Z" fill="url(#paint13_linear_2_3144)"/>
</g>
<path d="M111.765 186.088H113.294C113.795 186.049 114.293 186.184 114.706 186.47C114.885 186.607 115.027 186.786 115.12 186.991C115.212 187.197 115.252 187.422 115.235 187.647C115.235 188.735 114.471 189.264 113 189.264H111.765V186.088ZM106.382 183.794V186.088H108.235V194.912H106.382V197.206H113.471V194.912H111.765V191.412H113.324L116.265 197.294H120.588V195H118.824L116.618 190.912C117.317 190.669 117.922 190.211 118.345 189.603C118.767 188.996 118.987 188.269 118.971 187.529C118.978 186.562 118.621 185.628 117.971 184.912C117.53 184.484 117.002 184.158 116.423 183.955C115.845 183.752 115.228 183.677 114.618 183.735L106.382 183.794Z" fill="url(#paint14_linear_2_3144)"/>
<mask id="mask7_2_3144" style="mask-type:luminance" maskUnits="userSpaceOnUse" x="106" y="183" width="15" height="15">
<path d="M111.765 186.088H113.294C113.795 186.049 114.293 186.184 114.706 186.47C114.885 186.607 115.027 186.786 115.12 186.991C115.212 187.197 115.252 187.422 115.235 187.647C115.235 188.735 114.471 189.264 113 189.264H111.765V186.088ZM106.382 183.794V186.088H108.235V194.912H106.382V197.206H113.471V194.912H111.765V191.412H113.324L116.265 197.294H120.588V195H118.824L116.618 190.912C117.317 190.669 117.922 190.211 118.345 189.603C118.767 188.996 118.987 188.269 118.971 187.529C118.978 186.562 118.621 185.628 117.971 184.912C117.53 184.484 117.002 184.158 116.423 183.955C115.845 183.752 115.228 183.677 114.618 183.735L106.382 183.794Z" fill="white"/>
</mask>
<g mask="url(#mask7_2_3144)">
<path d="M114.864 176.824L99.8171 189.32L112.276 204.321L127.322 191.825L114.864 176.824Z" fill="url(#paint15_linear_2_3144)"/>
</g>
<path d="M121.177 183.794V186.088H123.118V195.088H121.177V197.382H128.735V195.088H126.647V191.529H129.588V189.235H126.647V186.088H130.735V187.97H133.324V183.794H121.177Z" fill="url(#paint16_linear_2_3144)"/>
<mask id="mask8_2_3144" style="mask-type:luminance" maskUnits="userSpaceOnUse" x="121" y="183" width="13" height="15">
<path d="M121.177 183.794V186.088H123.118V195.088H121.177V197.382H128.735V195.088H126.647V191.529H129.588V189.235H126.647V186.088H130.735V187.97H133.324V183.794H121.177Z" fill="white"/>
</mask>
<g mask="url(#mask8_2_3144)">
<path d="M128.357 177.808L114.487 189.327L126.119 203.333L139.989 191.814L128.357 177.808Z" fill="url(#paint17_linear_2_3144)"/>
</g>
<path d="M141.353 183.794V186.088H142.647V191.97C142.713 192.645 142.713 193.325 142.647 194C142.546 194.331 142.339 194.62 142.059 194.823C141.716 195.04 141.317 195.153 140.912 195.147C140.509 195.165 140.113 195.04 139.794 194.794C139.514 194.571 139.317 194.26 139.235 193.912C139.193 193.324 139.193 192.734 139.235 192.147V186.088H140.559V183.794H134.088V186.088H135.706V192.235C135.625 193.017 135.625 193.806 135.706 194.588C135.832 195.165 136.104 195.7 136.495 196.143C136.886 196.585 137.384 196.921 137.941 197.117C138.763 197.406 139.629 197.546 140.5 197.529C141.282 197.549 142.061 197.419 142.794 197.147C143.379 196.945 143.904 196.602 144.323 196.147C144.65 195.788 144.882 195.353 145 194.882C145.064 194.217 145.064 193.547 145 192.882V186.088H146.647V183.794H141.353Z" fill="url(#paint18_linear_2_3144)"/>
<mask id="mask9_2_3144" style="mask-type:luminance" maskUnits="userSpaceOnUse" x="134" y="183" width="13" height="15">
<path d="M141.353 183.794V186.088H142.647V191.97C142.713 192.645 142.713 193.325 142.647 194C142.546 194.331 142.339 194.62 142.059 194.823C141.716 195.04 141.317 195.153 140.912 195.147C140.509 195.165 140.113 195.04 139.794 194.794C139.514 194.571 139.317 194.26 139.235 193.912C139.193 193.324 139.193 192.734 139.235 192.147V186.088H140.559V183.794H134.088V186.088H135.706V192.235C135.625 193.017 135.625 193.806 135.706 194.588C135.832 195.165 136.104 195.7 136.495 196.143C136.886 196.585 137.384 196.921 137.941 197.117C138.763 197.406 139.629 197.546 140.5 197.529C141.282 197.549 142.061 197.419 142.794 197.147C143.379 196.945 143.904 196.602 144.323 196.147C144.65 195.788 144.882 195.353 145 194.882C145.064 194.217 145.064 193.547 145 192.882V186.088H146.647V183.794H141.353Z" fill="white"/>
</mask>
<g mask="url(#mask9_2_3144)">
<path d="M141.491 177.482L127.123 189.415L139.131 203.873L153.498 191.94L141.491 177.482Z" fill="url(#paint19_linear_2_3144)"/>
</g>
<path d="M160.382 183.794L157.382 191.735L154.412 183.794H147.588V186.088H149.353V195.088H147.588V197.382H153.323V195.088H151.559V186.088H151.882L156.147 197.382H157.618L161.823 186.088H162.118V195.088H160.5V197.382H167.323V195.088H165.559V186.088H167.323V183.794H160.382Z" fill="url(#paint20_linear_2_3144)"/>
<mask id="mask10_2_3144" style="mask-type:luminance" maskUnits="userSpaceOnUse" x="147" y="183" width="21" height="15">
<path d="M160.382 183.794L157.382 191.735L154.412 183.794H147.588V186.088H149.353V195.088H147.588V197.382H153.323V195.088H151.559V186.088H151.882L156.147 197.382H157.618L161.823 186.088H162.118V195.088H160.5V197.382H167.323V195.088H165.559V186.088H167.323V183.794H160.382Z" fill="white"/>
</mask>
<g mask="url(#mask10_2_3144)">
<path d="M159.264 174.117L140.914 189.357L155.646 207.096L173.996 191.856L159.264 174.117Z" fill="url(#paint21_linear_2_3144)"/>
</g>
<path d="M168.529 183.794V186.088H170.176V195.088H168.529V197.382H180.5V193.059H177.912V195.088H173.706V191.5H177.118V189.206H173.706V186.088H177.912V188.088H180.5V183.794H168.529Z" fill="url(#paint22_linear_2_3144)"/>
<mask id="mask11_2_3144" style="mask-type:luminance" maskUnits="userSpaceOnUse" x="168" y="183" width="13" height="15">
<path d="M168.529 183.794V186.088H170.176V195.088H168.529V197.382H180.5V193.059H177.912V195.088H173.706V191.5H177.118V189.206H173.706V186.088H177.912V188.088H180.5V183.794H168.529Z" fill="white"/>
</mask>
<g mask="url(#mask11_2_3144)">
<path d="M175.621 177.899L161.865 189.324L173.421 203.239L187.178 191.814L175.621 177.899Z" fill="url(#paint23_linear_2_3144)"/>
</g>
<path d="M183.147 184.618C182.772 184.97 182.478 185.4 182.285 185.878C182.092 186.355 182.005 186.868 182.03 187.383C182.01 187.812 182.075 188.24 182.222 188.644C182.368 189.048 182.593 189.419 182.882 189.736C183.836 190.571 184.919 191.246 186.088 191.736C186.645 191.978 187.161 192.306 187.618 192.706C187.886 192.993 188.033 193.372 188.03 193.765C188.03 193.951 187.994 194.134 187.923 194.306C187.853 194.478 187.749 194.634 187.618 194.765C187.481 194.907 187.316 195.02 187.134 195.095C186.952 195.171 186.756 195.209 186.559 195.206C186.021 195.203 185.504 194.992 185.118 194.618C184.668 194.097 184.436 193.423 184.471 192.736H182.147V197.353H184.471V196.206C184.782 196.636 185.194 196.982 185.672 197.213C186.149 197.444 186.676 197.552 187.206 197.53C188.229 197.555 189.225 197.199 190 196.53C190.388 196.148 190.691 195.689 190.889 195.182C191.086 194.675 191.174 194.132 191.147 193.588C191.17 192.892 191.008 192.202 190.677 191.588C190.386 191.015 189.95 190.529 189.412 190.177C188.682 189.712 187.914 189.309 187.118 188.971C186.428 188.728 185.79 188.359 185.235 187.883C185.129 187.78 185.045 187.657 184.99 187.52C184.934 187.383 184.907 187.236 184.912 187.088C184.906 186.935 184.938 186.782 185.004 186.644C185.071 186.505 185.171 186.385 185.294 186.294C185.572 186.106 185.9 186.003 186.235 186C186.476 185.996 186.715 186.04 186.937 186.131C187.16 186.222 187.361 186.358 187.53 186.53C187.922 186.921 188.153 187.446 188.177 188H190.471V183.883H188.235V185C187.957 184.598 187.582 184.272 187.146 184.051C186.709 183.83 186.224 183.722 185.735 183.736C184.801 183.731 183.898 184.077 183.206 184.706" fill="url(#paint24_linear_2_3144)"/>
<mask id="mask12_2_3144" style="mask-type:luminance" maskUnits="userSpaceOnUse" x="182" y="183" width="10" height="15">
<path d="M183.147 184.618C182.772 184.97 182.478 185.4 182.285 185.878C182.092 186.355 182.005 186.868 182.03 187.383C182.01 187.812 182.075 188.24 182.222 188.644C182.368 189.048 182.593 189.419 182.882 189.736C183.836 190.571 184.919 191.246 186.088 191.736C186.645 191.978 187.161 192.306 187.618 192.706C187.886 192.993 188.033 193.372 188.03 193.765C188.03 193.951 187.994 194.134 187.923 194.306C187.853 194.478 187.749 194.634 187.618 194.765C187.481 194.907 187.316 195.02 187.134 195.095C186.952 195.171 186.756 195.209 186.559 195.206C186.021 195.203 185.504 194.992 185.118 194.618C184.668 194.097 184.436 193.423 184.471 192.736H182.147V197.353H184.471V196.206C184.782 196.636 185.194 196.982 185.672 197.213C186.149 197.444 186.676 197.552 187.206 197.53C188.229 197.555 189.225 197.199 190 196.53C190.388 196.148 190.691 195.689 190.889 195.182C191.086 194.675 191.174 194.132 191.147 193.588C191.17 192.892 191.008 192.202 190.677 191.588C190.386 191.015 189.95 190.529 189.412 190.177C188.682 189.712 187.914 189.309 187.118 188.971C186.428 188.728 185.79 188.359 185.235 187.883C185.129 187.78 185.045 187.657 184.99 187.52C184.934 187.383 184.907 187.236 184.912 187.088C184.906 186.935 184.938 186.782 185.004 186.644C185.071 186.505 185.171 186.385 185.294 186.294C185.572 186.106 185.9 186.003 186.235 186C186.476 185.996 186.715 186.04 186.937 186.131C187.16 186.222 187.361 186.358 187.53 186.53C187.922 186.921 188.153 187.446 188.177 188H190.471V183.883H188.235V185C187.957 184.598 187.582 184.272 187.146 184.051C186.709 183.83 186.224 183.722 185.735 183.736C184.801 183.731 183.898 184.077 183.206 184.706" fill="white"/>
</mask>
<g mask="url(#mask12_2_3144)">
<path d="M187.449 179.203L175.231 189.35L185.773 202.043L197.991 191.896L187.449 179.203Z" fill="url(#paint25_linear_2_3144)"/>
</g>
<path d="M67.2648 139.324H79.1766V151.235H67.2648V139.324ZM63.706 154.794H82.7354V135.765H63.706V154.794ZM132.735 163.118H144.5V103.618H132.735V163.118ZM130.353 101.353H147.059V165.5H130.353V101.353ZM126.765 169.088H150.588V97.6766H126.765V169.088ZM120.882 61.9707H132.794V73.8825H120.824L120.882 61.9707ZM117.324 77.4413H136.353V58.4119H117.265L117.324 77.4413ZM55.5589 109.588H67.3236V50.0001H55.5589V109.588ZM61.4413 133.382H85.2354V157.177H61.3236L61.4413 133.382ZM85.1178 50.0001V127.353H55.3825V163.118H91.1766V50.0001H85.1178ZM114.882 55.8825H138.677V79.6766H114.882V55.8825ZM109 50.0001V163.118H114.882V85.7648H144.618V50.0001H109ZM53.1177 47.6178H69.7648V111.941H52.9413L53.1177 47.6178ZM49.4119 115.53H73.2354V44.1178H49.4119V115.53ZM52.9413 125.03H82.7354V47.6766H93.4413V165.5H52.9413V125.03ZM79.1766 44.1178V121.471H49.4119V169.088H97.0589V44.1178H79.1766ZM106.559 47.6766H147.059V88.2354H117.265V165.588H106.559V47.6766ZM102.941 44.1178V169.088H120.794V91.7354H150.588V44.1178H102.941ZM76.7648 29.8531H123.206V34.5883H76.7942L76.7648 29.8531ZM73.2354 38.2354H126.765V26.2648H73.2354V38.2354ZM55.3825 14.3825H144.618V8.50012H55.3825V14.3825ZM52.9413 6.02953H147.059V16.7354H52.9413V6.02953ZM49.4119 20.3236H150.588V2.4707H49.4119V20.3236Z" fill="white"/>
<mask id="mask13_2_3144" style="mask-type:luminance" maskUnits="userSpaceOnUse" x="49" y="2" width="102" height="168">
<path d="M67.2648 139.324H79.1766V151.235H67.2648V139.324ZM63.706 154.794H82.7354V135.765H63.706V154.794ZM132.735 163.118H144.5V103.618H132.735V163.118ZM130.353 101.353H147.059V165.5H130.353V101.353ZM126.765 169.088H150.588V97.6766H126.765V169.088ZM120.882 61.9707H132.794V73.8825H120.824L120.882 61.9707ZM117.324 77.4413H136.353V58.4119H117.265L117.324 77.4413ZM55.5589 109.588H67.3236V50.0001H55.5589V109.588ZM61.4413 133.382H85.2354V157.177H61.3236L61.4413 133.382ZM85.1178 50.0001V127.353H55.3825V163.118H91.1766V50.0001H85.1178ZM114.882 55.8825H138.677V79.6766H114.882V55.8825ZM109 50.0001V163.118H114.882V85.7648H144.618V50.0001H109ZM53.1177 47.6178H69.7648V111.941H52.9413L53.1177 47.6178ZM49.4119 115.53H73.2354V44.1178H49.4119V115.53ZM52.9413 125.03H82.7354V47.6766H93.4413V165.5H52.9413V125.03ZM79.1766 44.1178V121.471H49.4119V169.088H97.0589V44.1178H79.1766ZM106.559 47.6766H147.059V88.2354H117.265V165.588H106.559V47.6766ZM102.941 44.1178V169.088H120.794V91.7354H150.588V44.1178H102.941ZM76.7648 29.8531H123.206V34.5883H76.7942L76.7648 29.8531ZM73.2354 38.2354H126.765V26.2648H73.2354V38.2354ZM55.3825 14.3825H144.618V8.50012H55.3825V14.3825ZM52.9413 6.02953H147.059V16.7354H52.9413V6.02953ZM49.4119 20.3236H150.588V2.4707H49.4119V20.3236Z" fill="white"/>
</mask>
<g mask="url(#mask13_2_3144)">
<path d="M109.275 -47.2359L-32.4775 70.4912L90.699 218.805L232.452 101.078L109.275 -47.2359Z" fill="url(#paint26_linear_2_3144)"/>
</g>
</g>
<defs>
<linearGradient id="paint0_linear_2_3144" x1="16.1767" y1="183.794" x2="16.1767" y2="197.251" gradientUnits="userSpaceOnUse">
<stop offset="0.09375" stop-color="#E4A328"/>
<stop offset="0.421875" stop-color="#ECE587"/>
<stop offset="0.833333" stop-color="#E4A328"/>
<stop offset="1" stop-color="#B88A44"/>
</linearGradient>
<linearGradient id="paint1_linear_2_3144" x1="9.79362" y1="182.982" x2="22.4213" y2="198.186" gradientUnits="userSpaceOnUse">
<stop stop-color="#B88A44"/>
<stop offset="0.958333" stop-color="#E4A328"/>
</linearGradient>
<linearGradient id="paint2_linear_2_3144" x1="31.1617" y1="183.794" x2="31.1617" y2="197.531" gradientUnits="userSpaceOnUse">
<stop offset="0.09375" stop-color="#E4A328"/>
<stop offset="0.421875" stop-color="#ECE587"/>
<stop offset="0.833333" stop-color="#E4A328"/>
<stop offset="1" stop-color="#B88A44"/>
</linearGradient>
<linearGradient id="paint3_linear_2_3144" x1="25.1877" y1="183.428" x2="37.1953" y2="197.886" gradientUnits="userSpaceOnUse">
<stop stop-color="#B88A44"/>
<stop offset="0.958333" stop-color="#E4A328"/>
</linearGradient>
<linearGradient id="paint4_linear_2_3144" x1="44.7208" y1="183.674" x2="44.7208" y2="197.257" gradientUnits="userSpaceOnUse">
<stop offset="0.09375" stop-color="#E4A328"/>
<stop offset="0.421875" stop-color="#ECE587"/>
<stop offset="0.833333" stop-color="#E4A328"/>
<stop offset="1" stop-color="#B88A44"/>
</linearGradient>
<linearGradient id="paint5_linear_2_3144" x1="38.8961" y1="183.558" x2="50.5655" y2="197.609" gradientUnits="userSpaceOnUse">
<stop stop-color="#B88A44"/>
<stop offset="0.958333" stop-color="#E4A328"/>
</linearGradient>
<linearGradient id="paint6_linear_2_3144" x1="58.8382" y1="183.706" x2="58.8382" y2="197.118" gradientUnits="userSpaceOnUse">
<stop offset="0.09375" stop-color="#E4A328"/>
<stop offset="0.421875" stop-color="#ECE587"/>
<stop offset="0.833333" stop-color="#E4A328"/>
<stop offset="1" stop-color="#B88A44"/>
</linearGradient>
<linearGradient id="paint7_linear_2_3144" x1="52.6645" y1="183.138" x2="65.0668" y2="198.071" gradientUnits="userSpaceOnUse">
<stop stop-color="#B88A44"/>
<stop offset="0.958333" stop-color="#E4A328"/>
</linearGradient>
<linearGradient id="paint8_linear_2_3144" x1="70.1177" y1="183.794" x2="70.1177" y2="197.382" gradientUnits="userSpaceOnUse">
<stop offset="0.09375" stop-color="#E4A328"/>
<stop offset="0.421875" stop-color="#ECE587"/>
<stop offset="0.833333" stop-color="#E4A328"/>
<stop offset="1" stop-color="#B88A44"/>
</linearGradient>
<linearGradient id="paint9_linear_2_3144" x1="65.2153" y1="184.678" x2="75.0243" y2="196.489" gradientUnits="userSpaceOnUse">
<stop stop-color="#B88A44"/>
<stop offset="0.958333" stop-color="#E4A328"/>
</linearGradient>
<linearGradient id="paint10_linear_2_3144" x1="86.2221" y1="183.634" x2="86.2221" y2="197.206" gradientUnits="userSpaceOnUse">
<stop offset="0.09375" stop-color="#E4A328"/>
<stop offset="0.421875" stop-color="#ECE587"/>
<stop offset="0.833333" stop-color="#E4A328"/>
<stop offset="1" stop-color="#B88A44"/>
</linearGradient>
<linearGradient id="paint11_linear_2_3144" x1="80.305" y1="183.539" x2="92.0308" y2="197.657" gradientUnits="userSpaceOnUse">
<stop stop-color="#B88A44"/>
<stop offset="0.958333" stop-color="#E4A328"/>
</linearGradient>
<linearGradient id="paint12_linear_2_3144" x1="99.3529" y1="183.794" x2="99.3529" y2="197.382" gradientUnits="userSpaceOnUse">
<stop offset="0.09375" stop-color="#E4A328"/>
<stop offset="0.421875" stop-color="#ECE587"/>
<stop offset="0.833333" stop-color="#E4A328"/>
<stop offset="1" stop-color="#B88A44"/>
</linearGradient>
<linearGradient id="paint13_linear_2_3144" x1="93.5575" y1="183.613" x2="105.114" y2="197.528" gradientUnits="userSpaceOnUse">
<stop stop-color="#B88A44"/>
<stop offset="0.958333" stop-color="#E4A328"/>
</linearGradient>
<linearGradient id="paint14_linear_2_3144" x1="113.485" y1="183.716" x2="113.485" y2="197.294" gradientUnits="userSpaceOnUse">
<stop offset="0.09375" stop-color="#E4A328"/>
<stop offset="0.421875" stop-color="#ECE587"/>
<stop offset="0.833333" stop-color="#E4A328"/>
<stop offset="1" stop-color="#B88A44"/>
</linearGradient>
<linearGradient id="paint15_linear_2_3144" x1="107.34" y1="183.072" x2="119.799" y2="198.073" gradientUnits="userSpaceOnUse">
<stop stop-color="#B88A44"/>
<stop offset="0.958333" stop-color="#E4A328"/>
</linearGradient>
<linearGradient id="paint16_linear_2_3144" x1="127.25" y1="183.794" x2="127.25" y2="197.382" gradientUnits="userSpaceOnUse">
<stop offset="0.09375" stop-color="#E4A328"/>
<stop offset="0.421875" stop-color="#ECE587"/>
<stop offset="0.833333" stop-color="#E4A328"/>
<stop offset="1" stop-color="#B88A44"/>
</linearGradient>
<linearGradient id="paint17_linear_2_3144" x1="121.422" y1="183.568" x2="133.054" y2="197.573" gradientUnits="userSpaceOnUse">
<stop stop-color="#B88A44"/>
<stop offset="0.958333" stop-color="#E4A328"/>
</linearGradient>
<linearGradient id="paint18_linear_2_3144" x1="140.368" y1="183.794" x2="140.368" y2="197.531" gradientUnits="userSpaceOnUse">
<stop offset="0.09375" stop-color="#E4A328"/>
<stop offset="0.421875" stop-color="#ECE587"/>
<stop offset="0.833333" stop-color="#E4A328"/>
<stop offset="1" stop-color="#B88A44"/>
</linearGradient>
<linearGradient id="paint19_linear_2_3144" x1="134.307" y1="183.448" x2="146.315" y2="197.906" gradientUnits="userSpaceOnUse">
<stop stop-color="#B88A44"/>
<stop offset="0.958333" stop-color="#E4A328"/>
</linearGradient>
<linearGradient id="paint20_linear_2_3144" x1="157.456" y1="183.794" x2="157.456" y2="197.382" gradientUnits="userSpaceOnUse">
<stop offset="0.09375" stop-color="#E4A328"/>
<stop offset="0.421875" stop-color="#ECE587"/>
<stop offset="0.833333" stop-color="#E4A328"/>
<stop offset="1" stop-color="#B88A44"/>
</linearGradient>
<linearGradient id="paint21_linear_2_3144" x1="150.089" y1="181.737" x2="164.821" y2="199.476" gradientUnits="userSpaceOnUse">
<stop stop-color="#B88A44"/>
<stop offset="0.958333" stop-color="#E4A328"/>
</linearGradient>
<linearGradient id="paint22_linear_2_3144" x1="174.515" y1="183.794" x2="174.515" y2="197.382" gradientUnits="userSpaceOnUse">
<stop offset="0.09375" stop-color="#E4A328"/>
<stop offset="0.421875" stop-color="#ECE587"/>
<stop offset="0.833333" stop-color="#E4A328"/>
<stop offset="1" stop-color="#B88A44"/>
</linearGradient>
<linearGradient id="paint23_linear_2_3144" x1="168.743" y1="183.612" x2="180.299" y2="197.527" gradientUnits="userSpaceOnUse">
<stop stop-color="#B88A44"/>
<stop offset="1" stop-color="#E4A328"/>
</linearGradient>
<linearGradient id="paint24_linear_2_3144" x1="186.589" y1="183.734" x2="186.589" y2="197.533" gradientUnits="userSpaceOnUse">
<stop offset="0.09375" stop-color="#E4A328"/>
<stop offset="0.421875" stop-color="#ECE587"/>
<stop offset="0.833333" stop-color="#E4A328"/>
<stop offset="1" stop-color="#B88A44"/>
</linearGradient>
<linearGradient id="paint25_linear_2_3144" x1="181.34" y1="184.276" x2="191.882" y2="196.97" gradientUnits="userSpaceOnUse">
<stop stop-color="#B88A44"/>
<stop offset="1" stop-color="#E4A328"/>
</linearGradient>
<linearGradient id="paint26_linear_2_3144" x1="38.3988" y1="11.6277" x2="161.575" y2="159.942" gradientUnits="userSpaceOnUse">
<stop offset="0.09375" stop-color="#E4A328"/>
<stop offset="0.421875" stop-color="#ECE587"/>
<stop offset="0.833333" stop-color="#E4A328"/>
<stop offset="1" stop-color="#B88A44"/>
</linearGradient>
<clipPath id="clip0_2_3144">
<rect width="200" height="200" fill="white"/>
</clipPath>
</defs>
</svg>
